<svg width="50" height="50" viewBox="0 0 50 50" fill="none" xmlns="http://www.w3.org/2000/svg">
<path d="M25.0001 0C38.8076 0 50.0001 11.1925 50.0001 25C50.0001 38.8075 38.8076 50 25.0001 50C11.1926 50 6.10352e-05 38.8075 6.10352e-05 25C6.10352e-05 11.1925 11.1926 0 25.0001 0ZM25.0001 10C24.337 10 23.7011 10.2634 23.2323 10.7322C22.7635 11.2011 22.5001 11.837 22.5001 12.5V25C22.5002 25.663 22.7637 26.2988 23.2326 26.7675L30.7326 34.2675C31.2041 34.7229 31.8356 34.9749 32.4911 34.9692C33.1466 34.9635 33.7736 34.7006 34.2371 34.237C34.7006 33.7735 34.9636 33.1465 34.9692 32.491C34.9749 31.8355 34.723 31.204 34.2676 30.7325L27.5001 23.965V12.5C27.5001 11.837 27.2367 11.2011 26.7678 10.7322C26.299 10.2634 25.6631 10 25.0001 10Z" fill="#15332B"/>
</svg>
