<svg width="20" height="17" viewBox="0 0 20 17" fill="none" xmlns="http://www.w3.org/2000/svg">
<path d="M0.276123 1.63492C0.276123 1.36494 0.366124 1.10601 0.526327 0.915103C0.68653 0.724195 0.903812 0.616943 1.13037 0.616943H18.2154C18.4419 0.616943 18.6592 0.724195 18.8194 0.915103C18.9796 1.10601 19.0696 1.36494 19.0696 1.63492V15.8867C19.0696 16.1566 18.9796 16.4156 18.8194 16.6065C18.6592 16.7974 18.4419 16.9046 18.2154 16.9046H1.13037C0.903812 16.9046 0.68653 16.7974 0.526327 16.6065C0.366124 16.4156 0.276123 16.1566 0.276123 15.8867V1.63492ZM10.5271 4.68887V6.72483H15.6526V4.68887H10.5271ZM14.7984 8.76079H10.5271V10.7968H14.7984V8.76079ZM8.3915 6.72483C8.3915 6.04987 8.1665 5.40255 7.76599 4.92528C7.36548 4.44801 6.82228 4.17988 6.25587 4.17988C5.68947 4.17988 5.14627 4.44801 4.74576 4.92528C4.34525 5.40255 4.12025 6.04987 4.12025 6.72483C4.12025 7.3998 4.34525 8.04711 4.74576 8.52439C5.14627 9.00166 5.68947 9.26978 6.25587 9.26978C6.82228 9.26978 7.36548 9.00166 7.76599 8.52439C8.1665 8.04711 8.3915 7.3998 8.3915 6.72483ZM6.25587 10.2878C5.46291 10.2878 4.70242 10.6631 4.14171 11.3313C3.581 11.9995 3.266 12.9058 3.266 13.8507H9.24575C9.24575 12.9058 8.93074 11.9995 8.37003 11.3313C7.80932 10.6631 7.04884 10.2878 6.25587 10.2878Z" fill="#15332B"/>
</svg>
