<svg width="41" height="40" viewBox="0 0 41 40" fill="none" xmlns="http://www.w3.org/2000/svg">
<circle cx="20.5554" cy="20.0564" r="19.8124" fill="#076461"/>
<g clip-path="url(#clip0_35_924)">
<path d="M29.0608 13.1521H12.9508C12.6456 13.1521 12.3529 13.2734 12.1371 13.4892C11.9213 13.705 11.8 13.9977 11.8 14.3028V25.81C11.8 26.1152 11.9213 26.4079 12.1371 26.6237C12.3529 26.8395 12.6456 26.9608 12.9508 26.9608H29.0608C29.366 26.9608 29.6587 26.8395 29.8745 26.6237C30.0903 26.4079 30.2116 26.1152 30.2116 25.81V14.3028C30.2116 13.9977 30.0903 13.705 29.8745 13.4892C29.6587 13.2734 29.366 13.1521 29.0608 13.1521ZM28.1748 25.81H13.9059L17.9334 21.6444L17.1049 20.8447L12.9508 25.1426V15.1774L20.1025 22.2946C20.3181 22.5089 20.6097 22.6292 20.9137 22.6292C21.2177 22.6292 21.5094 22.5089 21.725 22.2946L29.0608 14.999V25.0678L24.8262 20.8332L24.0149 21.6444L28.1748 25.81ZM13.7045 14.3028H28.1288L20.9137 21.4776L13.7045 14.3028Z" fill="white"/>
</g>
<defs>
<clipPath id="clip0_35_924">
<rect width="20.7129" height="16.2101" fill="white" transform="translate(10.6493 12.4016)"/>
</clipPath>
</defs>
</svg>
