<svg width="22" height="23" viewBox="0 0 22 23" fill="none" xmlns="http://www.w3.org/2000/svg">
<path d="M7.23245 2.25708H14.7972C17.679 2.25708 20.0204 4.59854 20.0204 7.48034V15.0451C20.0204 16.4304 19.4701 17.7589 18.4906 18.7385C17.511 19.718 16.1825 20.2683 14.7972 20.2683H7.23245C4.35065 20.2683 2.00919 17.9269 2.00919 15.0451V7.48034C2.00919 6.09505 2.55949 4.76649 3.53904 3.78694C4.5186 2.80739 5.84715 2.25708 7.23245 2.25708ZM7.05234 4.05821C6.1925 4.05821 5.36788 4.39978 4.75988 5.00777C4.15188 5.61577 3.81031 6.44039 3.81031 7.30023V15.2252C3.81031 17.0173 5.26022 18.4672 7.05234 18.4672H14.9773C15.8371 18.4672 16.6618 18.1256 17.2698 17.5176C17.8777 16.9096 18.2193 16.085 18.2193 15.2252V7.30023C18.2193 5.50811 16.7694 4.05821 14.9773 4.05821H7.05234ZM15.7428 5.40905C16.0413 5.40905 16.3277 5.52765 16.5388 5.73876C16.7499 5.94987 16.8685 6.2362 16.8685 6.53475C16.8685 6.83331 16.7499 7.11964 16.5388 7.33075C16.3277 7.54186 16.0413 7.66046 15.7428 7.66046C15.4442 7.66046 15.1579 7.54186 14.9468 7.33075C14.7357 7.11964 14.6171 6.83331 14.6171 6.53475C14.6171 6.2362 14.7357 5.94987 14.9468 5.73876C15.1579 5.52765 15.4442 5.40905 15.7428 5.40905ZM11.0148 6.75989C12.209 6.75989 13.3543 7.2343 14.1988 8.07874C15.0432 8.92318 15.5176 10.0685 15.5176 11.2627C15.5176 12.4569 15.0432 13.6022 14.1988 14.4467C13.3543 15.2911 12.209 15.7655 11.0148 15.7655C9.82059 15.7655 8.67529 15.2911 7.83084 14.4467C6.9864 13.6022 6.512 12.4569 6.512 11.2627C6.512 10.0685 6.9864 8.92318 7.83084 8.07874C8.67529 7.2343 9.82059 6.75989 11.0148 6.75989ZM11.0148 8.56102C10.2983 8.56102 9.6111 8.84566 9.10443 9.35233C8.59777 9.85899 8.31313 10.5462 8.31313 11.2627C8.31313 11.9792 8.59777 12.6664 9.10443 13.1731C9.6111 13.6798 10.2983 13.9644 11.0148 13.9644C11.7313 13.9644 12.4185 13.6798 12.9252 13.1731C13.4319 12.6664 13.7165 11.9792 13.7165 11.2627C13.7165 10.5462 13.4319 9.85899 12.9252 9.35233C12.4185 8.84566 11.7313 8.56102 11.0148 8.56102Z" fill="#808080"/>
</svg>
