<svg width="47" height="48" viewBox="0 0 47 48" fill="none" xmlns="http://www.w3.org/2000/svg">
<path fill-rule="evenodd" clip-rule="evenodd" d="M0.999471 47.6097H11.3181C11.277 47.5711 11.2378 47.5306 11.2004 47.4884L8.56348 44.5111C8.0871 43.9732 7.9314 43.2375 8.14917 42.5527L9.98006 36.7961C5.04688 37.844 1.1962 41.8198 0.333414 46.819C0.316238 46.9161 0.320598 47.0158 0.346187 47.111C0.371775 47.2063 0.417968 47.2947 0.481499 47.3702C0.545031 47.4456 0.624352 47.5061 0.713855 47.5475C0.803359 47.5889 0.900861 47.6101 0.999471 47.6097ZM11.6872 36.5243H12.5663C9.41053 36.5207 6.80026 34.1897 6.35902 31.1555H18.7879C18.3465 34.1897 15.7362 36.5207 12.5805 36.5243H13.4593L15.5255 43.0208C15.5785 43.1874 15.5428 43.3562 15.4269 43.487L12.79 46.4643C12.7629 46.4949 12.7295 46.5195 12.6921 46.5363C12.6548 46.5531 12.6143 46.5618 12.5733 46.5618C12.5323 46.5618 12.4918 46.5531 12.4544 46.5363C12.4171 46.5195 12.3837 46.4949 12.3565 46.4643L9.71962 43.487C9.60368 43.3562 9.56797 43.1874 9.62096 43.0208L11.6872 36.5243ZM15.04 24.4661C14.7561 25.2055 14.0441 25.7148 13.2231 25.7148H11.9238C11.1028 25.7148 10.3908 25.2055 10.1068 24.4661C9.90544 23.9416 9.84318 22.8636 9.76643 22.273C7.72897 23.2928 6.37668 25.3506 6.29647 27.674H18.8504C18.7707 25.3682 17.4333 23.3006 15.3803 22.2731C15.3037 22.8636 15.2413 23.9418 15.04 24.4661ZM45.6963 31.0026H33.4483V33.5571H43.1648C43.3243 33.5571 43.4544 33.6872 43.4544 33.8467V35.9824C43.4544 36.1418 43.3243 36.2719 43.1648 36.2719H33.4483V38.9728H43.1648C43.3243 38.9728 43.4544 39.1029 43.4544 39.2624V41.398C43.4544 41.5575 43.3243 41.6876 43.1648 41.6876H33.4483V44.2421H45.6963C46.0684 44.2421 46.372 43.9386 46.372 43.5664V31.6782C46.372 31.306 46.0684 31.0026 45.6963 31.0026ZM37.6487 17.8496C38.6563 18.0895 39.6191 18.4887 40.501 19.032L42.3544 18.2088L44.5389 20.3933L43.7159 22.2462C44.2594 23.1283 44.6586 24.0914 44.8986 25.0993L46.7895 25.8271V28.9163L45.3822 29.458H40.3447C40.622 28.7975 40.7644 28.0881 40.7635 27.3718C40.7635 24.3959 38.3516 21.984 35.3758 21.984C34.7169 21.9834 34.0634 22.1039 33.4481 22.3395V16.9533L33.8312 15.9579H36.9205L37.6487 17.8496ZM17.4414 7.00565C17.0692 7.00565 16.7656 7.30923 16.7656 7.68136V21.2903C18.0671 22.1168 19.0963 23.3083 19.7248 24.7161V24.2923C19.7248 24.1328 19.8549 24.0027 20.0144 24.0027H22.9512C23.1107 24.0027 23.2408 24.1328 23.2408 24.2923V27.2291C23.2408 27.3886 23.1107 27.5187 22.9512 27.5187H20.3896C20.3936 27.6054 20.3964 27.6924 20.3978 27.7799C20.6355 27.8674 20.8513 28.0056 21.0303 28.1847C21.7073 28.8617 21.7073 29.9679 21.0303 30.6448C20.8407 30.8346 20.6099 30.9782 20.3559 31.0644C20.3047 31.556 20.2069 32.0415 20.0638 32.5145C20.5713 31.7317 21.4693 31.285 22.3973 31.285H26.2721C27.6874 31.285 28.9934 32.3447 28.9934 33.8139V44.2371H31.9038V7.68136C31.9038 7.30923 31.6002 7.00565 31.2281 7.00565H17.4414ZM20.4373 3.71078H28.2322C28.6043 3.71078 28.9079 4.01437 28.9079 4.38649V5.46116H19.7616V4.38649C19.7616 4.01437 20.065 3.71078 20.4373 3.71078ZM23.5624 1.27523C23.5624 1.07042 23.6438 0.873998 23.7886 0.729175C23.9334 0.584352 24.1299 0.502991 24.3347 0.502991C24.5395 0.502991 24.7359 0.584352 24.8807 0.729175C25.0255 0.873998 25.1069 1.07042 25.1069 1.27523V2.1663H23.5624V1.27523ZM20.2074 10.5388H28.4619C28.7278 10.5388 28.9446 10.7557 28.9446 11.0215V13.4413C28.9446 13.7072 28.7278 13.924 28.4619 13.924H20.2074C20.0795 13.9237 19.9569 13.8728 19.8664 13.7823C19.776 13.6919 19.725 13.5692 19.7248 13.4413V11.0215C19.7248 10.7557 19.9416 10.5388 20.2074 10.5388ZM25.7181 24.0027H28.655C28.8144 24.0027 28.9446 24.1328 28.9446 24.2923V27.2291C28.9446 27.3886 28.8144 27.5187 28.655 27.5187H25.7181C25.5587 27.5187 25.4285 27.3886 25.4285 27.2291V24.2923C25.4285 24.1328 25.5586 24.0027 25.7181 24.0027ZM20.0144 18.299H22.9512C23.1107 18.299 23.2408 18.4291 23.2408 18.5886V21.5254C23.2408 21.6849 23.1107 21.815 22.9512 21.815H20.0144C19.8549 21.815 19.7248 21.6849 19.7248 21.5254V18.5886C19.7248 18.429 19.8549 18.299 20.0144 18.299ZM25.7181 18.299H28.655C28.8144 18.299 28.9446 18.4291 28.9446 18.5886V21.5254C28.9446 21.6849 28.8144 21.815 28.655 21.815H25.7181C25.5587 21.815 25.4285 21.6849 25.4285 21.5254V18.5886C25.4285 18.429 25.5586 18.299 25.7181 18.299ZM27.4489 44.2371H25.7254C24.8303 41.7317 23.2476 39.5785 21.2203 37.9807V33.8139C21.2203 33.205 21.8391 32.8295 22.3972 32.8295H26.272C26.8302 32.8295 27.4488 33.2051 27.4488 33.8139V44.2371H27.4489ZM19.6759 36.9223V33.8139C19.6759 33.7008 19.6839 33.5894 19.6995 33.4803C19.2616 34.4414 18.6341 35.3043 17.8548 36.0171C18.483 36.2743 19.0916 36.5768 19.6759 36.9223ZM19.8003 29.6111H5.34651C5.3208 29.6109 5.29537 29.6057 5.27169 29.5957C5.248 29.5857 5.22652 29.5711 5.20848 29.5528C5.08038 29.4247 5.18 29.2184 5.34651 29.2184H19.605C19.741 29.2184 19.8585 29.1968 19.9383 29.2766C20.0664 29.4048 19.9669 29.6111 19.8003 29.6111ZM11.9237 24.1703C11.7151 24.1703 11.5456 24.0266 11.5186 23.8197C11.4066 22.957 11.2249 21.9469 11.1677 21.0962C11.142 20.7169 11.9738 20.566 12.2808 20.5279C12.5452 20.4951 12.5791 20.4907 12.8465 20.5253C13.1559 20.5654 14.0053 20.711 13.979 21.0962L13.628 23.8197C13.6012 24.0265 13.4316 24.1702 13.223 24.1702H11.9237V24.1703ZM13.8286 47.6097H24.1472C24.2458 47.6101 24.3433 47.5889 24.4328 47.5475C24.5223 47.5061 24.6016 47.4455 24.6651 47.3701C24.7287 47.2947 24.7749 47.2063 24.8005 47.111C24.826 47.0158 24.8304 46.9161 24.8133 46.819C23.9504 41.8199 20.0997 37.844 15.1665 36.7962L16.9974 42.5529C17.2152 43.2377 17.0596 43.9733 16.5831 44.5113L13.9463 47.4886C13.9086 47.5307 13.8694 47.5713 13.8286 47.6097Z" fill="#076461"/>
</svg>
