<svg width="21" height="20" viewBox="0 0 21 20" fill="none" xmlns="http://www.w3.org/2000/svg">
<path d="M17.7431 2.6507C13.7473 -0.388939 7.26893 -0.388939 3.27316 2.6507C2.32446 3.36747 1.57062 4.22367 1.05594 5.16897C0.541256 6.11428 0.276123 7.12961 0.276123 8.15529C0.276123 9.18097 0.541256 10.1963 1.05594 11.1416C1.57062 12.0869 2.32446 12.9431 3.27316 13.6599L10.5075 19.1645L17.7431 13.6599C18.6918 12.9431 19.4457 12.0869 19.9603 11.1416C20.475 10.1963 20.7402 9.18097 20.7402 8.15529C20.7402 7.12961 20.475 6.11428 19.9603 5.16897C19.4457 4.22367 18.6918 3.36747 17.7431 2.6507ZM10.5075 10.7567C9.65309 10.7567 8.85112 10.4996 8.24613 10.0327C7.64721 9.56853 7.31085 8.9396 7.31085 8.28388C7.31085 7.62817 7.64721 6.99923 8.24613 6.53507C8.84985 6.0682 9.65309 5.81102 10.5075 5.81102C11.3619 5.81102 12.1652 6.0682 12.7689 6.53507C13.3678 6.99923 13.7042 7.62817 13.7042 8.28388C13.7042 8.9396 13.3678 9.56853 12.7689 10.0327C12.1652 10.4996 11.3619 10.7567 10.5075 10.7567Z" fill="#15332B"/>
</svg>
