<svg width="26" height="27" viewBox="0 0 26 27" fill="none" xmlns="http://www.w3.org/2000/svg">
<path d="M13 20.5714C12.138 20.5714 11.3114 20.3005 10.7019 19.8183C10.0924 19.336 9.75 18.682 9.75 18C9.75 16.5729 11.1962 15.4286 13 15.4286C13.862 15.4286 14.6886 15.6995 15.2981 16.1817C15.9076 16.664 16.25 17.318 16.25 18C16.25 18.682 15.9076 19.336 15.2981 19.8183C14.6886 20.3005 13.862 20.5714 13 20.5714ZM22.75 24.4286V11.5714H3.25V24.4286H22.75ZM22.75 9C23.612 9 24.4386 9.27092 25.0481 9.75315C25.6576 10.2354 26 10.8894 26 11.5714V24.4286C26 25.1106 25.6576 25.7646 25.0481 26.2468C24.4386 26.7291 23.612 27 22.75 27H3.25C2.38805 27 1.5614 26.7291 0.951903 26.2468C0.34241 25.7646 0 25.1106 0 24.4286V11.5714C0 10.1443 1.44625 9 3.25 9H4.875V6.42857C4.875 4.72361 5.73102 3.08848 7.25476 1.88288C8.77849 0.677294 10.8451 0 13 0C14.067 0 15.1235 0.16628 16.1093 0.489346C17.0951 0.812412 17.9908 1.28594 18.7452 1.88288C19.4997 2.47983 20.0982 3.18851 20.5065 3.96846C20.9148 4.74841 21.125 5.58436 21.125 6.42857V9H22.75ZM13 2.57143C11.7071 2.57143 10.4671 2.97781 9.55285 3.70116C8.63861 4.42451 8.125 5.40559 8.125 6.42857V9H17.875V6.42857C17.875 5.40559 17.3614 4.42451 16.4471 3.70116C15.5329 2.97781 14.2929 2.57143 13 2.57143Z" fill="#BDBDBD"/>
</svg>
