<svg width="40" height="40" viewBox="0 0 40 40" fill="none" xmlns="http://www.w3.org/2000/svg">
<circle cx="19.8969" cy="20.0564" r="19.8124" fill="#076461"/>
<path d="M16.0635 10.8202L17.1546 10.4717C18.1758 10.1454 19.268 10.6733 19.7057 11.7046L20.577 13.7593C20.9569 14.6539 20.7462 15.7065 20.0562 16.361L18.1384 18.1826C18.2569 19.2728 18.6226 20.3457 19.2366 21.4013C19.82 22.4228 20.6024 23.3168 21.5374 24.0304L23.8433 23.2604C24.7166 22.9697 25.668 23.305 26.2039 24.0922L27.4521 25.926C28.0762 26.8419 27.9637 28.1042 27.1907 28.8803L26.362 29.7121C25.5373 30.5398 24.36 30.8407 23.2699 30.5003C20.6975 29.6979 18.3329 27.316 16.1749 23.3547C14.0139 19.3872 13.252 16.0196 13.8873 13.2558C14.1547 12.0927 14.9835 11.1657 16.0655 10.8202H16.0635Z" fill="white"/>
</svg>
