<svg width="22" height="22" viewBox="0 0 22 22" fill="none" xmlns="http://www.w3.org/2000/svg">
<path fill-rule="evenodd" clip-rule="evenodd" d="M14.894 21.239C11.876 21.239 8.32496 19.637 5.34296 16.657C0.584957 11.898 -0.657043 5.68601 2.51496 2.51401C3.45196 1.57801 4.59196 1.00801 5.90696 0.818008L6.66696 0.708008L9.46396 7.23001L6.66696 8.62801C7.31496 9.85601 8.29696 11.125 9.58596 12.414C10.815 13.643 12.083 14.618 13.356 15.31L14.67 12.737L21.153 13.663L21.191 14.49C21.286 16.549 20.696 18.276 19.485 19.486C18.301 20.67 16.692 21.239 14.894 21.239ZM5.46096 2.97201C4.88596 3.16501 4.37196 3.48601 3.92896 3.93001C1.62896 6.22901 2.92496 11.41 6.75696 15.243C10.591 19.076 15.771 20.369 18.071 18.071C18.837 17.305 19.113 16.295 19.181 15.401L15.814 14.92L15.168 16.214C14.924 16.702 14.503 17.061 13.982 17.224C13.461 17.389 12.883 17.33 12.399 17.067C10.959 16.284 9.53596 15.194 8.17096 13.829C6.74096 12.399 5.64196 10.97 4.90296 9.58101C4.64596 9.09601 4.59696 8.54201 4.76296 8.02001C4.92896 7.50101 5.28796 7.08201 5.77496 6.83801L6.88096 6.28501L5.46096 2.97201Z" fill="#92989F"/>
</svg>
