<svg width="28" height="28" viewBox="0 0 28 28" fill="none" xmlns="http://www.w3.org/2000/svg">
<path d="M25.4108 23.1323L18.8634 16.5839C19.9186 15.1339 20.4862 13.3864 20.4845 11.5931C20.4845 6.89949 16.6657 3.08072 11.972 3.08072C7.27837 3.08072 3.45959 6.89949 3.45959 11.5931C3.45959 16.2868 7.27837 20.1056 11.972 20.1056C13.7653 20.1073 15.5128 19.5397 16.9628 18.4846L23.5112 25.0319L25.4108 23.1323ZM11.972 17.4171C10.82 17.4172 9.69384 17.0757 8.73593 16.4357C7.77802 15.7957 7.0314 14.8861 6.5905 13.8218C6.14959 12.7575 6.0342 11.5863 6.25893 10.4565C6.48365 9.32657 7.03838 8.2887 7.85298 7.47411C8.66758 6.65951 9.70545 6.10477 10.8353 5.88005C11.9652 5.65533 13.1364 5.77072 14.2007 6.21162C15.265 6.65253 16.1746 7.39915 16.8146 8.35705C17.4545 9.31496 17.7961 10.4411 17.796 11.5931C17.7941 13.1372 17.18 14.6175 16.0882 15.7093C14.9964 16.8011 13.5161 17.4153 11.972 17.4171Z" fill="#001F3F"/>
</svg>
