<svg width="22" height="23" viewBox="0 0 22 23" fill="none" xmlns="http://www.w3.org/2000/svg">
<path d="M20.5567 5.85941C19.8632 6.17461 19.1158 6.38174 18.3413 6.4808C19.1338 6.0035 19.7462 5.24703 20.0344 4.33746C19.2869 4.78774 18.4584 5.10294 17.5848 5.28305C16.8734 4.50857 15.8738 4.05829 14.739 4.05829C12.6227 4.05829 10.8936 5.78737 10.8936 7.9217C10.8936 8.22789 10.9297 8.52508 10.9927 8.80426C7.7867 8.64215 4.93191 7.10219 3.03173 4.76973C2.69852 5.33709 2.5094 6.0035 2.5094 6.70594C2.5094 8.04778 3.18482 9.23653 4.22947 9.91195C3.59007 9.91195 2.9957 9.73183 2.47338 9.46167V9.48868C2.47338 11.3619 3.80621 12.9288 5.57131 13.2801C5.00461 13.4351 4.40967 13.4567 3.83323 13.3431C4.07783 14.1108 4.55686 14.7826 5.203 15.2639C5.84913 15.7453 6.62988 16.0121 7.43548 16.0268C6.06989 17.1078 4.37716 17.6922 2.63548 17.6838C2.32929 17.6838 2.0231 17.6658 1.7169 17.6298C3.42797 18.7285 5.46324 19.3679 7.64261 19.3679C14.739 19.3679 18.6385 13.4782 18.6385 8.37198C18.6385 8.20088 18.6385 8.03878 18.6295 7.86767C19.3859 7.32733 20.0343 6.6429 20.5567 5.85941Z" fill="#808080"/>
</svg>
